HIERARCHY
ROOT ETY1
{
	OFFSET 0.000000 0.000000 0.000000
	CHANNELS 6 Xposition Yposition Zposition Xrotation Yrotation Zrotation
	JOINT N_ALL
	{
		OFFSET 0.000000 0.000000 0.000000
		CHANNELS 3 Xrotation Yrotation Zrotation
		JOINT locator2
		{
			OFFSET 0.000000 0.000000 63.674999
			CHANNELS 3 Xrotation Yrotation Zrotation
			JOINT hara
			{
				OFFSET -0.000000 -0.000000 0.472500
				CHANNELS 3 Xrotation Yrotation Zrotation
				JOINT mune
				{
					OFFSET -0.000005 -0.000000 14.647499
					CHANNELS 3 Xrotation Yrotation Zrotation
					JOINT kubi
					{
						OFFSET -0.565367 0.000000 13.797264
						CHANNELS 3 Xrotation Yrotation Zrotation
						JOINT kao
						{
							OFFSET 0.709599 -0.000000 1.686798
							CHANNELS 3 Xrotation Yrotation Zrotation
							JOINT ago
							{
								OFFSET 1.521274 -0.000001 2.195969
								CHANNELS 3 Xrotation Yrotation Zrotation
								End Site
								{
									OFFSET -0.000000 0.000000 0.365990
								}
							}
							JOINT eyebrow
							{
								OFFSET 2.744157 -0.000001 4.250847
								CHANNELS 3 Xrotation Yrotation Zrotation
								End Site
								{
									OFFSET -0.000000 0.000000 0.365990
								}
							}
							JOINT lip
							{
								OFFSET 1.419795 -0.000001 0.927528
								CHANNELS 3 Xrotation Yrotation Zrotation
								End Site
								{
									OFFSET 0.365992 -0.000000 0.000000
								}
							}
						}
					}
					JOINT L_sako
					{
						OFFSET -0.472501 6.525000 10.465401
						CHANNELS 3 Xrotation Yrotation Zrotation
						JOINT L_kata
						{
							OFFSET -0.000001 5.850000 -0.581734
							CHANNELS 3 Xrotation Yrotation Zrotation
							JOINT L_hiji
							{
								OFFSET -0.483016 15.785759 -0.000015
								CHANNELS 3 Xrotation Yrotation Zrotation
								JOINT L_te
								{
									OFFSET 0.611527 17.032738 -0.013641
									CHANNELS 3 Xrotation Yrotation Zrotation
									JOINT LeftHandIndex1
									{
										OFFSET 2.549848 6.470253 0.791817
										CHANNELS 3 Xrotation Yrotation Zrotation
										JOINT LeftHandIndex2
										{
											OFFSET -0.000001 2.289848 0.000000
											CHANNELS 3 Xrotation Yrotation Zrotation
											JOINT LeftHandIndex3
											{
												OFFSET -0.000001 2.268135 0.000000
												CHANNELS 3 Xrotation Yrotation Zrotation
												End Site
												{
													OFFSET 0.000000 0.365993 0.000000
												}
											}
										}
									}
									JOINT LeftHandMiddle1
									{
										OFFSET 0.874708 6.694298 1.118919
										CHANNELS 3 Xrotation Yrotation Zrotation
										JOINT LeftHandMiddle2
										{
											OFFSET -0.000001 2.683815 0.000000
											CHANNELS 3 Xrotation Yrotation Zrotation
											JOINT LeftHandMiddle3
											{
												OFFSET -0.000001 2.217308 0.000000
												CHANNELS 3 Xrotation Yrotation Zrotation
												End Site
												{
													OFFSET -0.000000 0.365993 0.000000
												}
											}
										}
									}
									JOINT LeftHandPinky1
									{
										OFFSET -2.442180 5.931721 0.497902
										CHANNELS 3 Xrotation Yrotation Zrotation
										JOINT LeftHandPinky2
										{
											OFFSET -0.000000 2.137306 0.000000
											CHANNELS 3 Xrotation Yrotation Zrotation
											JOINT LeftHandPinky3
											{
												OFFSET -0.000000 1.836044 0.000000
												CHANNELS 3 Xrotation Yrotation Zrotation
												End Site
												{
													OFFSET 0.000000 0.365993 0.000000
												}
											}
										}
									}
									JOINT LeftHandRing1
									{
										OFFSET -0.853656 6.338440 0.870934
										CHANNELS 3 Xrotation Yrotation Zrotation
										JOINT LeftHandRing2
										{
											OFFSET -0.000001 2.531284 0.000000
											CHANNELS 3 Xrotation Yrotation Zrotation
											JOINT LeftHandRing3
											{
												OFFSET -0.000001 2.217308 0.000000
												CHANNELS 3 Xrotation Yrotation Zrotation
												End Site
												{
													OFFSET -0.000000 0.365993 0.000000
												}
											}
										}
									}
									JOINT LeftHandThumb1
									{
										OFFSET 2.594638 1.377514 -1.567856
										CHANNELS 3 Xrotation Yrotation Zrotation
										JOINT LeftHandThumb2
										{
											OFFSET 1.626614 2.409187 0.000557
											CHANNELS 3 Xrotation Yrotation Zrotation
											JOINT LeftHandThumb3
											{
												OFFSET 0.823900 2.113201 0.000290
												CHANNELS 3 Xrotation Yrotation Zrotation
												End Site
												{
													OFFSET 0.000000 0.365993 0.000000
												}
											}
										}
									}
								}
							}
						}
					}
					JOINT R_sako
					{
						OFFSET -0.472506 -6.525000 10.465546
						CHANNELS 3 Xrotation Yrotation Zrotation
						JOINT R_kata
						{
							OFFSET 0.000002 -5.850000 -0.581696
							CHANNELS 3 Xrotation Yrotation Zrotation
							JOINT R_hiji
							{
								OFFSET -0.483008 -15.785765 -0.000015
								CHANNELS 3 Xrotation Yrotation Zrotation
								JOINT R_te
								{
									OFFSET 0.611537 -17.032732 -0.013748
									CHANNELS 3 Xrotation Yrotation Zrotation
									JOINT RightHandIndex1
									{
										OFFSET 2.550124 -6.470253 0.790878
										CHANNELS 3 Xrotation Yrotation Zrotation
										JOINT RightHandIndex2
										{
											OFFSET 0.000001 -2.289848 0.000000
											CHANNELS 3 Xrotation Yrotation Zrotation
											JOINT RightHandIndex3
											{
												OFFSET 0.000001 -2.268135 0.000000
												CHANNELS 3 Xrotation Yrotation Zrotation
												End Site
												{
													OFFSET 0.000000 -0.365993 0.000000
												}
											}
										}
									}
									JOINT RightHandMiddle1
									{
										OFFSET 0.875098 -6.694302 1.118561
										CHANNELS 3 Xrotation Yrotation Zrotation
										JOINT RightHandMiddle2
										{
											OFFSET 0.000001 -2.683807 0.000000
											CHANNELS 3 Xrotation Yrotation Zrotation
											JOINT RightHandMiddle3
											{
												OFFSET 0.000001 -2.217308 0.000000
												CHANNELS 3 Xrotation Yrotation Zrotation
												End Site
												{
													OFFSET 0.000000 -0.365993 0.000000
												}
											}
										}
									}
									JOINT RightHandPinky1
									{
										OFFSET -2.442005 -5.931721 0.498680
										CHANNELS 3 Xrotation Yrotation Zrotation
										JOINT RightHandPinky2
										{
											OFFSET 0.000000 -2.137306 0.000000
											CHANNELS 3 Xrotation Yrotation Zrotation
											JOINT RightHandPinky3
											{
												OFFSET 0.000000 -1.836044 0.000000
												CHANNELS 3 Xrotation Yrotation Zrotation
												End Site
												{
													OFFSET 0.000000 -0.365993 0.000000
												}
											}
										}
									}
									JOINT RightHandRing1
									{
										OFFSET -0.853352 -6.338440 0.871170
										CHANNELS 3 Xrotation Yrotation Zrotation
										JOINT RightHandRing2
										{
											OFFSET 0.000001 -2.531284 0.000000
											CHANNELS 3 Xrotation Yrotation Zrotation
											JOINT RightHandRing3
											{
												OFFSET 0.000001 -2.217308 0.000000
												CHANNELS 3 Xrotation Yrotation Zrotation
												End Site
												{
													OFFSET 0.000000 -0.365993 0.000000
												}
											}
										}
									}
									JOINT RightHandThumb1
									{
										OFFSET 2.594098 -1.377514 -1.568817
										CHANNELS 3 Xrotation Yrotation Zrotation
										JOINT RightHandThumb2
										{
											OFFSET 1.626616 -2.409184 0.000000
											CHANNELS 3 Xrotation Yrotation Zrotation
											JOINT RightHandThumb3
											{
												OFFSET 0.823900 -2.113201 0.000000
												CHANNELS 3 Xrotation Yrotation Zrotation
												End Site
												{
													OFFSET 0.000000 -0.365993 0.000000
												}
											}
										}
									}
								}
							}
						}
					}
				}
			}
			JOINT koshi
			{
				OFFSET 0.000000 0.000000 0.000000
				CHANNELS 3 Xrotation Yrotation Zrotation
				JOINT L_momo
				{
					OFFSET 0.000005 5.033075 -8.541428
					CHANNELS 3 Xrotation Yrotation Zrotation
					JOINT L_hiza
					{
						OFFSET 0.236263 0.000015 -23.625002
						CHANNELS 3 Xrotation Yrotation Zrotation
						JOINT L_ashi
						{
							OFFSET -0.944986 0.000017 -25.908707
							CHANNELS 3 Xrotation Yrotation Zrotation
							JOINT L_ashi2
							{
								OFFSET 3.767458 0.000001 -3.875652
								CHANNELS 3 Xrotation Yrotation Zrotation
								End Site
								{
									OFFSET 0.365992 0.000000 0.000000
								}
							}
						}
					}
				}
				JOINT R_momo
				{
					OFFSET 0.000001 -5.033065 -8.541435
					CHANNELS 3 Xrotation Yrotation Zrotation
					JOINT R_hiza
					{
						OFFSET 0.236263 0.000015 -23.624998
						CHANNELS 3 Xrotation Yrotation Zrotation
						JOINT R_ashi
						{
							OFFSET -0.944986 0.000017 -25.908707
							CHANNELS 3 Xrotation Yrotation Zrotation
							JOINT R_ashi2
							{
								OFFSET 3.767459 0.000001 -3.875652
								CHANNELS 3 Xrotation Yrotation Zrotation
								End Site
								{
									OFFSET 0.365992 0.000000 0.000000
								}
							}
						}
					}
				}
			}
		}
	}
}
MOTION
Frames: 4
Frame Time: 0.041667
0.000000 0.000000 0.000000 -0.000000 0.000000 -89.999982 -0.000000 0.000000 -0.000000 -0.000055 0.000003 0.000000 0.273399 0.393715 -3.827162 -0.121308 -0.258542 1.549582 1.210490 -10.965737 0.522626 -0.682263 12.300957 0.968824 0.000002 4.996166 0.000002 0.000001 0.999159 -0.000016 -0.000002 -0.955120 0.000003 -19.635570 14.992658 -2.271191 -55.204092 -0.631364 -6.935004 -0.294226 -0.014324 -22.252189 -9.241324 -3.149622 -3.429122 -74.133828 11.590929 0.285939 -96.097107 0.021928 -0.019689 -96.097107 0.021903 -0.019692 -63.266287 0.010876 -0.017697 -95.050080 0.021527 -0.019744 -95.050074 0.021525 -0.019751 -84.442025 -10.119024 -0.019128 -89.058891 0.019460 -0.019800 -102.107776 0.023960 -0.019363 -75.505692 0.014829 -0.019186 -94.516827 0.021344 -0.019763 -94.516827 0.021341 -0.019758 -19.240375 1.320956 4.678850 -0.015063 -0.006947 49.508807 -0.017424 -0.010387 61.615130 19.425639 15.261979 2.293432 54.901914 2.377373 6.413831 0.290446 0.000003 21.762769 14.436645 -6.437357 4.049159 74.144476 11.579513 -0.306964 96.098842 0.000030 0.000045 96.094744 0.000049 0.000045 63.267892 0.000040 0.000028 95.055415 0.000066 0.000016 95.047738 0.000061 0.000020 84.443411 -10.136365 -0.001356 89.061289 0.000059 0.000041 102.105338 0.000052 0.000038 75.510105 0.000049 0.000028 94.521478 0.000064 0.000019 94.514532 0.000059 0.000020 19.241036 1.320909 -4.687217 0.000032 -0.000017 -49.516573 0.000042 -0.000028 -61.621154 0.326014 0.648351 -5.489289 4.944901 -6.255205 -0.065082 0.001724 9.124813 -0.019595 -5.241237 -3.522351 5.850554 -0.000003 0.032449 -0.000007 -6.169683 -7.456926 0.080793 -0.003144 8.717669 0.027957 5.825637 -1.874900 -0.553903 -0.065087 -0.000039 0.000002 
0.000000 0.000000 0.000000 -0.000000 0.000000 -89.999982 -0.000000 0.000000 -0.000000 -0.000055 0.000003 0.000000 0.273399 0.393715 -3.827162 -0.121308 -0.258542 1.549582 1.210490 -10.965737 0.522626 -0.682263 12.300957 0.968824 0.000002 4.996166 0.000002 0.000001 0.999159 -0.000016 -0.000002 -0.955120 0.000003 -19.635570 14.992658 -2.271191 -55.204092 -0.631364 -6.935004 -0.294226 -0.014324 -22.252189 -9.241324 -3.149622 -3.429122 -74.133828 11.590929 0.285939 -96.097107 0.021928 -0.019689 -96.097107 0.021903 -0.019692 -63.266287 0.010876 -0.017697 -95.050080 0.021527 -0.019744 -95.050074 0.021525 -0.019751 -84.442025 -10.119024 -0.019128 -89.058891 0.019460 -0.019800 -102.107776 0.023960 -0.019363 -75.505692 0.014829 -0.019186 -94.516827 0.021344 -0.019763 -94.516827 0.021341 -0.019758 -19.240375 1.320956 4.678850 -0.015063 -0.006947 49.508807 -0.017424 -0.010387 61.615130 19.425639 15.261979 2.293432 54.901914 2.377373 6.413831 0.290446 0.000003 21.762769 14.436645 -6.437357 4.049159 74.144476 11.579513 -0.306964 96.098842 0.000030 0.000045 96.094744 0.000049 0.000045 63.267892 0.000040 0.000028 95.055415 0.000066 0.000016 95.047738 0.000061 0.000020 84.443411 -10.136365 -0.001356 89.061289 0.000059 0.000041 102.105338 0.000052 0.000038 75.510105 0.000049 0.000028 94.521478 0.000064 0.000019 94.514532 0.000059 0.000020 19.241036 1.320909 -4.687217 0.000032 -0.000017 -49.516573 0.000042 -0.000028 -61.621154 0.326014 0.648351 -5.489289 4.944901 -6.255205 -0.065082 0.001724 9.124813 -0.019595 -5.241237 -3.522351 5.850554 -0.000003 0.032449 -0.000007 -6.169683 -7.456926 0.080793 -0.003144 8.717669 0.027957 5.825637 -1.874900 -0.553903 -0.065087 -0.000039 0.000002 
0.000000 0.000000 0.000000 -0.000000 0.000000 -89.999982 -0.000000 0.000000 -0.000000 -0.000055 0.000003 0.000000 -0.506518 1.659801 -1.844094 -0.121372 0.264302 2.074071 0.863611 -8.607906 -1.109252 0.218714 10.366929 0.017122 0.000002 5.560589 0.000002 0.000001 1.074678 -0.000016 -0.000002 -0.999117 0.000003 -18.818761 13.875280 -1.890342 -53.947652 -0.250519 -4.310224 0.631272 0.522886 -25.200174 -8.515137 -2.555369 -4.407219 -74.161750 11.606163 0.282985 -96.130336 0.021937 -0.019687 -96.130336 0.021918 -0.019691 -63.288348 0.010880 -0.017700 -95.082968 0.021540 -0.019744 -95.082968 0.021538 -0.019748 -84.471880 -10.132436 -0.019650 -89.089771 0.019470 -0.019802 -102.136709 0.023970 -0.019361 -75.531988 0.014836 -0.019189 -94.549544 0.021354 -0.019761 -94.549551 0.021352 -0.019756 -19.255019 1.321344 4.693359 -0.015066 -0.006955 49.539342 -0.017428 -0.010393 61.648816 19.473773 14.713083 2.814136 53.405406 3.154476 6.566814 -0.807570 0.687665 24.960450 13.249275 -5.784778 4.061913 68.315907 11.353462 0.722035 90.298222 0.000026 0.000041 93.236139 0.000048 0.000047 58.008428 0.000038 0.000028 90.372405 0.000062 0.000017 93.510897 0.000061 0.000021 81.338059 -10.106586 -0.222467 85.999356 0.000059 0.000044 100.349167 0.000050 0.000040 70.937388 0.000046 0.000027 89.992476 0.000061 0.000021 93.098409 0.000062 0.000020 20.310225 3.436165 -3.338571 0.000032 -0.000014 -47.355891 0.000043 -0.000027 -58.896223 0.661733 0.103682 -4.415735 5.175753 -8.488786 0.695270 -0.012792 14.293327 0.257637 -5.473385 -5.771324 4.612470 -0.000003 -0.000037 -0.019087 -6.499961 -8.958238 -0.752584 -0.007211 14.624864 0.159074 5.429436 -5.530753 -0.937557 -0.065218 -0.101768 -0.073454 
0.000000 0.000000 0.000000 -0.000000 0.000000 -89.999982 -0.000000 0.000000 -0.000000 -0.000055 0.000003 0.000000 -1.285473 3.671377 1.127947 -0.232480 0.962950 2.600394 0.521399 -5.373351 -3.520272 1.546465 7.642856 -0.919633 0.000002 6.126438 0.000002 0.000001 1.149506 -0.000016 -0.000003 -1.043757 0.000003 -17.576416 12.395438 -1.258207 -52.884130 0.423569 -0.310635 1.694621 1.026633 -29.584674 -7.774485 -1.985805 -5.386567 -74.187268 11.621452 0.279492 -96.163565 0.021948 -0.019683 -96.163558 0.021928 -0.019689 -63.310465 0.010886 -0.017701 -95.115855 0.021552 -0.019743 -95.115855 0.021548 -0.019749 -84.501693 -10.145096 -0.019560 -89.120711 0.019482 -0.019801 -102.165587 0.023981 -0.019359 -75.555880 0.014844 -0.019189 -94.582260 0.021365 -0.019762 -94.582260 0.021364 -0.019756 -19.269801 1.322019 4.709249 -0.015071 -0.006958 49.568332 -0.017432 -0.010404 61.682516 19.454286 13.420319 3.611235 51.271590 3.559500 6.810149 -2.015880 1.198633 29.789389 11.400979 -4.913312 3.957504 59.956849 11.121244 2.194207 81.977208 0.000021 0.000043 89.150668 0.000038 0.000045 50.459645 0.000032 0.000025 83.657216 0.000059 0.000023 91.297561 0.000062 0.000021 76.901585 -10.076097 -0.443225 81.621491 0.000056 0.000044 97.828096 0.000048 0.000039 64.393924 0.000040 0.000027 83.505961 0.000054 0.000022 91.059775 0.000063 0.000024 21.687965 6.523151 -1.425395 0.000025 -0.000017 -44.265356 0.000041 -0.000026 -54.995758 0.999872 -0.431857 -2.905666 5.434960 -11.608111 1.562141 -0.017014 20.908346 0.534443 -5.721164 -8.459297 3.309747 0.019420 -0.000056 -0.055871 -6.951463 -10.910653 -1.804962 -0.011926 22.133848 0.291121 5.067072 -10.339278 -1.267416 -0.065348 -0.203641 -0.073454 
